<?xml version="1.0" standalone="no"?>
<!DOCTYPE svg PUBLIC "-//W3C//DTD SVG 20010904//EN"
 "http://www.w3.org/TR/2001/REC-SVG-20010904/DTD/svg10.dtd">
<svg version="1.0" xmlns="http://www.w3.org/2000/svg"
 width="32.000000pt" height="32.000000pt" viewBox="0 0 32.000000 32.000000"
 preserveAspectRatio="xMidYMid meet">
<metadata>
Created by potrace 1.16, written by Peter Selinger 2001-2019
</metadata>
<g transform="translate(0.000000,32.000000) scale(0.100000,-0.100000)"
fill="#000000" stroke="none">
<path d="M0 305 c0 -10 10 -15 30 -15 l30 0 0 -135 c0 -117 -2 -135 -18 -144
-13 -8 -1 -10 47 -11 54 0 62 2 49 13 -11 8 -18 32 -20 73 l-3 62 71 -74 c59
-61 76 -74 102 -74 18 0 32 2 32 4 0 2 -38 41 -85 87 l-85 83 57 58 c32 33 68
61 81 64 38 10 24 24 -24 24 -35 0 -45 -3 -41 -14 3 -7 -19 -37 -51 -69 l-57
-56 4 56 c2 38 9 62 20 70 13 10 3 12 -61 13 -63 0 -78 -3 -78 -15z"/>
</g>
</svg>
